<?xml version="1.0" standalone="no"?>
<!DOCTYPE svg PUBLIC "-//W3C//DTD SVG 20010904//EN"
 "http://www.w3.org/TR/2001/REC-SVG-20010904/DTD/svg10.dtd">
<svg version="1.0" xmlns="http://www.w3.org/2000/svg"
 width="600.000000pt" height="600.000000pt" viewBox="0 0 600.000000 600.000000"
 preserveAspectRatio="xMidYMid meet">
<metadata>
Created by potrace 1.14, written by Peter Selinger 2001-2017
</metadata>
<g transform="translate(0.000000,600.000000) scale(0.100000,-0.100000)"
fill="#000000" stroke="none">
<path d="M0 3000 l0 -3000 3000 0 3000 0 0 3000 0 3000 -3000 0 -3000 0 0
-3000z m2130 2221 c29 -21 47 -70 56 -149 4 -31 13 -72 22 -90 26 -58 42 -61
328 -63 302 -2 491 -16 734 -53 563 -87 916 -244 1104 -489 94 -123 136 -239
151 -410 6 -72 -21 -224 -70 -402 -133 -478 -474 -1068 -938 -1629 -215 -259
-312 -363 -746 -799 -333 -334 -336 -337 -377 -337 -26 0 -51 7 -66 20 -93 72
-43 223 148 455 104 125 312 360 440 495 400 423 592 642 767 875 273 362 454
694 523 957 38 147 54 336 34 422 -48 216 -290 413 -613 500 -343 93 -817 139
-1142 111 -106 -9 -135 -19 -175 -60 l-34 -36 -1 -557 c0 -607 5 -793 35
-1247 10 -165 22 -354 25 -420 3 -66 8 -149 10 -185 3 -36 8 -225 11 -421 7
-379 4 -414 -39 -444 -45 -31 -158 -10 -171 32 -3 10 -7 54 -11 98 -3 44 -7
103 -10 130 -2 28 -7 91 -10 140 -3 50 -8 110 -10 135 -3 25 -7 86 -10 135 -3
50 -8 110 -10 135 -3 25 -7 86 -10 135 -3 50 -8 110 -10 135 -3 25 -7 86 -10
135 -3 50 -8 110 -10 135 -3 25 -7 86 -10 135 -3 50 -8 110 -10 135 -2 25 -7
83 -10 130 -3 47 -8 110 -10 140 -7 82 -13 161 -40 535 -14 187 -28 376 -31
420 -14 195 -23 287 -27 291 -4 5 -159 -71 -260 -127 -43 -24 -103 -27 -144
-7 -25 12 -28 19 -31 71 -6 107 40 173 194 283 131 92 196 154 240 225 60 100
90 204 95 329 1 36 4 68 6 73 7 13 96 -3 123 -22z"/>
</g>
</svg>
